<svg id="Layer_1" data-name="Layer 1" xmlns="http://www.w3.org/2000/svg" width="32" height="192" viewBox="0 0 32 192"><defs><style>.cls-1{fill:#424242;}.cls-2{fill:#414141;}.cls-3{fill:none;}</style></defs><title>actionBtnSprite</title><path class="cls-1" d="M8,8V24h3V23H9V9H23v3h1V8Z"/><path class="cls-1" d="M19,16.4l.71.71L13.8,23H13.1v-.71L19,16.4M19,15,12.1,21.9V24h2.12l6.92-6.92L19,15Z"/><path class="cls-1" d="M21.84,12.16l-2.12,2.12,2.12,2.12L24,14.28Zm0,2.83-.71-.71.71-.71.71.71Z"/><polygon class="cls-2" points="24 47.5 16.5 47.5 16.5 40 15.5 40 15.5 47.5 8 47.5 8 48.5 15.5 48.5 15.5 56 16.5 56 16.5 48.5 24 48.5 24 47.5"/><path class="cls-3" d="M8,88V72H24V88Z"/><path class="cls-2" d="M12,80a2,2,0,1,0-2,2A2,2,0,0,0,12,80Zm2,0a2,2,0,1,0,2-2A2,2,0,0,0,14,80Zm6,0a2,2,0,1,0,2-2A2,2,0,0,0,20,80Z"/><path class="cls-2" d="M23,107.58H19a.5.5,0,0,0,0,1h4a.5.5,0,0,1,.5.5v10a.5.5,0,0,1-.5.5H9a.5.5,0,0,1-.5-.5v-10a.5.5,0,0,1,.5-.5h4a.5.5,0,0,0,0-1H9a1.5,1.5,0,0,0-1.5,1.5v10a1.5,1.5,0,0,0,1.5,1.5H23a1.5,1.5,0,0,0,1.5-1.5v-10A1.5,1.5,0,0,0,23,107.58Z"/><path class="cls-2" d="M16.14,113.92l1.5-2.59h-1v-7.41a.5.5,0,0,0-1,0v7.41h-1Z"/><path class="cls-2" d="M23,139.58H19a.5.5,0,0,0,0,1h4a.5.5,0,0,1,.5.5v10a.5.5,0,0,1-.5.5H9a.5.5,0,0,1-.5-.5v-10a.5.5,0,0,1,.5-.5h4a.5.5,0,0,0,0-1H9a1.5,1.5,0,0,0-1.5,1.5v10a1.5,1.5,0,0,0,1.5,1.5H23a1.5,1.5,0,0,0,1.5-1.5v-10A1.5,1.5,0,0,0,23,139.58Z"/><path class="cls-2" d="M16.14,145.92l1.5-2.59h-1v-7.41a.5.5,0,0,0-1,0v7.41h-1Z"/><circle class="cls-2" cx="12.14" cy="149.02" r="1"/><circle class="cls-2" cx="16.14" cy="149.02" r="1"/><circle class="cls-2" cx="20.14" cy="149.02" r="1"/><path class="cls-2" d="M22,167.5H10A2.5,2.5,0,0,0,7.5,170v12a2.5,2.5,0,0,0,2.5,2.5H22a2.5,2.5,0,0,0,2.5-2.5V170A2.5,2.5,0,0,0,22,167.5Zm-12,1H22a1.5,1.5,0,0,1,1.5,1.5v1.5H8.5V170A1.5,1.5,0,0,1,10,168.5Zm12,15H10A1.5,1.5,0,0,1,8.5,182v-9.5h15V182A1.5,1.5,0,0,1,22,183.5Z"/><path class="cls-2" d="M10,170.5h4a.5.5,0,0,0,0-1H10a.5.5,0,0,0,0,1Z"/><path class="cls-2" d="M19,177.3H16.5v-2.5a.5.5,0,0,0-1,0v2.5H13a.5.5,0,0,0,0,1h2.5v2.5a.5.5,0,0,0,1,0v-2.5H19a.5.5,0,0,0,0-1Z"/></svg>