<svg id="Layer_1" data-name="Layer 1" xmlns="http://www.w3.org/2000/svg" width="32" height="32" viewBox="0 0 32 32"><defs><style>.cls-1{fill:#fff;}.cls-2,.cls-3{fill:none;stroke:#000;stroke-linecap:round;}.cls-2{stroke-linejoin:round;}</style></defs><title>hand</title><path class="cls-1" d="M12.49,16.37c-.1-.37-.2-.85-.41-1.55s-.34-.86-.47-1.23-.3-.72-.5-1.18A12.1,12.1,0,0,1,10.66,11a1.43,1.43,0,0,1,.24-1.21,1.41,1.41,0,0,1,1.36-.35,2.07,2.07,0,0,1,.92.79,7.48,7.48,0,0,1,.72,1.54A10.91,10.91,0,0,1,14.5,14l.08.45s0-1.12,0-1.16c0-1-.06-1.82,0-2.94,0-.13.06-.59.08-.71a1.19,1.19,0,0,1,.67-1,1.71,1.71,0,0,1,1.4,0,1.17,1.17,0,0,1,.69,1c0,.11.09,1,.09,1.11,0,1,0,1.64,0,2.17,0,.23,0,1.63,0,1.47a29,29,0,0,1,.34-3.94,1.49,1.49,0,0,1,.79-.93,1.37,1.37,0,0,1,1.4.24,1.85,1.85,0,0,1,.48,1.15c0,.4,0,.9,0,1.25,0,.87,0,1.32,0,2.12,0,0,0,.3,0,.18.09-.28.19-.54.27-.74s.24-.61.36-.86a6.42,6.42,0,0,1,.42-.69,1.38,1.38,0,0,1,.67-.56,1,1,0,0,1,1.3.59,3.41,3.41,0,0,1,0,1.1,9.34,9.34,0,0,1-.35,1.65c-.13.45-.27,1.24-.34,1.6s-.23,1.38-.36,1.82a5.91,5.91,0,0,1-.65,1.38,7.24,7.24,0,0,0-1.19,1.81,4.05,4.05,0,0,0-.1,1,3.45,3.45,0,0,0,.12.92,5.8,5.8,0,0,1-1.23,0c-.39-.06-.87-.84-1-1.08a.38.38,0,0,0-.68,0c-.23.38-.71,1.07-1.05,1.11-.67.08-2.05,0-3.14,0,0,0,.18-1-.23-1.36s-.83-.78-1.14-1.06l-.83-.92c-.28-.36-.63-1.09-1.24-2-.35-.5-1-1.09-1.28-1.58a1.75,1.75,0,0,1-.19-1.32,1.21,1.21,0,0,1,1.36-.83,2,2,0,0,1,1.24.54,7.36,7.36,0,0,1,.75.75c.16.19.2.28.38.51s.3.46.21.12"/><path class="cls-2" d="M12.49,16.37c-.1-.37-.2-.85-.41-1.55s-.34-.86-.47-1.23-.3-.72-.5-1.18A12.1,12.1,0,0,1,10.66,11a1.43,1.43,0,0,1,.24-1.21,1.41,1.41,0,0,1,1.36-.35,2.07,2.07,0,0,1,.92.79,7.48,7.48,0,0,1,.72,1.54A10.91,10.91,0,0,1,14.5,14l.08.45s0-1.12,0-1.16c0-1-.06-1.82,0-2.94,0-.13.06-.59.08-.71a1.19,1.19,0,0,1,.67-1,1.71,1.71,0,0,1,1.4,0,1.17,1.17,0,0,1,.69,1c0,.11.09,1,.09,1.11,0,1,0,1.64,0,2.17,0,.23,0,1.63,0,1.47a29,29,0,0,1,.34-3.94,1.49,1.49,0,0,1,.79-.93,1.37,1.37,0,0,1,1.4.24,1.85,1.85,0,0,1,.48,1.15c0,.4,0,.9,0,1.25,0,.87,0,1.32,0,2.12,0,0,0,.3,0,.18.09-.28.19-.54.27-.74s.24-.61.36-.86a6.42,6.42,0,0,1,.42-.69,1.38,1.38,0,0,1,.67-.56,1,1,0,0,1,1.3.59,3.41,3.41,0,0,1,0,1.1,9.34,9.34,0,0,1-.35,1.65c-.13.45-.27,1.24-.34,1.6s-.23,1.38-.36,1.82a5.91,5.91,0,0,1-.65,1.38,7.24,7.24,0,0,0-1.19,1.81,4.05,4.05,0,0,0-.1,1,3.45,3.45,0,0,0,.12.92,5.8,5.8,0,0,1-1.23,0c-.39-.06-.87-.84-1-1.08a.38.38,0,0,0-.68,0c-.23.38-.71,1.07-1.05,1.11-.67.08-2.05,0-3.14,0,0,0,.18-1-.23-1.36s-.83-.78-1.14-1.06l-.83-.92c-.28-.36-.63-1.09-1.24-2-.35-.5-1-1.09-1.28-1.58a1.75,1.75,0,0,1-.19-1.32,1.21,1.21,0,0,1,1.36-.83,2,2,0,0,1,1.24.54,7.36,7.36,0,0,1,.75.75c.16.19.2.28.38.51s.3.46.21.12"/><line class="cls-3" x1="19.5" y1="20.53" x2="19.5" y2="17.07"/><line class="cls-3" x1="17.48" y1="20.54" x2="17.49" y2="17.06"/><line class="cls-3" x1="15.51" y1="17.1" x2="15.51" y2="20.52"/></svg>