<svg id="Layer_1" data-name="Layer 1" xmlns="http://www.w3.org/2000/svg" width="32" height="32" viewBox="0 0 32 32"><defs><style>.cls-1{fill:#fff;}.cls-2,.cls-3{fill:none;stroke:#000;}.cls-2{stroke-linejoin:round;}.cls-3{stroke-linecap:round;}</style></defs><title>hand</title><path class="cls-1" d="M12.21,11c.48-.18,1.44-.07,1.69.48s.4,1.25.41,1.08A6.47,6.47,0,0,1,14.44,11a1.12,1.12,0,0,1,.69-.7,2,2,0,0,1,.92-.06,1.27,1.27,0,0,1,.77.5,5.46,5.46,0,0,1,.39,1.84A6.64,6.64,0,0,1,17.49,11a1.25,1.25,0,0,1,.69-.48,2.76,2.76,0,0,1,1,0,1.4,1.4,0,0,1,.68.49,5.5,5.5,0,0,1,.38,1.67c0,.14.07-.39.29-.74a1,1,0,0,1,1.91.64c0,.66,0,.63,0,1.07s0,.83,0,1.21a11.68,11.68,0,0,1-.24,1.75A5.91,5.91,0,0,1,21.5,18a7.27,7.27,0,0,0-1.2,1.82,4.15,4.15,0,0,0-.1,1,3.52,3.52,0,0,0,.12.93,5.86,5.86,0,0,1-1.24,0c-.39-.06-.88-.85-1-1.08a.38.38,0,0,0-.69,0c-.23.38-.71,1.08-1.06,1.12-.67.08-2.07,0-3.16,0,0,0,.19-1-.23-1.37s-.83-.79-1.15-1.07L11,18.41a4.46,4.46,0,0,1-1.25-2c-.21-.94-.19-1.4,0-1.78a1.51,1.51,0,0,1,.86-.63,1.8,1.8,0,0,1,.88.06,1.16,1.16,0,0,1,.49.39c.23.31.31.46.21.12s-.32-.6-.44-1a4.6,4.6,0,0,1-.38-1.53,1.15,1.15,0,0,1,.84-1"/><path class="cls-2" d="M12.21,11c.48-.18,1.44-.07,1.69.48s.4,1.25.41,1.08A6.47,6.47,0,0,1,14.44,11a1.12,1.12,0,0,1,.69-.7,2,2,0,0,1,.92-.06,1.27,1.27,0,0,1,.77.5,5.46,5.46,0,0,1,.39,1.84A6.64,6.64,0,0,1,17.49,11a1.25,1.25,0,0,1,.69-.48,2.76,2.76,0,0,1,1,0,1.4,1.4,0,0,1,.68.49,5.5,5.5,0,0,1,.38,1.67c0,.14.07-.39.29-.74a1,1,0,0,1,1.91.64c0,.66,0,.63,0,1.07s0,.83,0,1.21a11.68,11.68,0,0,1-.24,1.75A5.91,5.91,0,0,1,21.5,18a7.27,7.27,0,0,0-1.2,1.82,4.15,4.15,0,0,0-.1,1,3.52,3.52,0,0,0,.12.93,5.86,5.86,0,0,1-1.24,0c-.39-.06-.88-.85-1-1.08a.38.38,0,0,0-.69,0c-.23.38-.71,1.08-1.06,1.12-.67.08-2.07,0-3.16,0,0,0,.19-1-.23-1.37s-.83-.79-1.15-1.07L11,18.41a4.46,4.46,0,0,1-1.25-2c-.21-.94-.19-1.4,0-1.78a1.51,1.51,0,0,1,.86-.63,1.8,1.8,0,0,1,.88.06,1.16,1.16,0,0,1,.49.39c.23.31.31.46.21.12s-.32-.6-.44-1a4.6,4.6,0,0,1-.38-1.53A1.15,1.15,0,0,1,12.21,11Z"/><line class="cls-3" x1="19.24" y1="18.77" x2="19.24" y2="15.29"/><line class="cls-3" x1="17.21" y1="18.78" x2="17.21" y2="15.29"/><line class="cls-3" x1="15.23" y1="15.32" x2="15.23" y2="18.76"/></svg>