<svg id="Layer_1" data-name="Layer 1" xmlns="http://www.w3.org/2000/svg" width="64" height="192" viewBox="0 0 64 192"><defs><style>.cls-1,.cls-3,.cls-4,.cls-6,.cls-7{fill:none;}.cls-2{fill:#146bd2;}.cls-3,.cls-4{stroke:#146bd2;}.cls-3,.cls-6{stroke-miterlimit:10;}.cls-4,.cls-7{stroke-linecap:round;stroke-linejoin:round;}.cls-5{fill:#414141;}.cls-6,.cls-7{stroke:#414141;}</style></defs><title>widgetTypeSprite</title><rect class="cls-1" width="32" height="32" transform="translate(0 32) rotate(-90)"/><rect class="cls-2" x="10" y="16" width="3" height="8"/><rect class="cls-2" x="15" y="14" width="3" height="10"/><rect class="cls-2" x="20" y="18" width="3" height="6"/><polyline class="cls-3" points="24 24 8 24 8 8"/><rect class="cls-1" y="96" width="32" height="32" transform="translate(-96 128) rotate(-90)"/><circle class="cls-3" cx="16" cy="112" r="8"/><line class="cls-3" x1="16" y1="112" x2="10.26" y2="117.57"/><line class="cls-3" x1="24" y1="112" x2="16" y2="112"/><line class="cls-3" x1="16" y1="104" x2="16" y2="112"/><g id="geo_map_-_32px_-_merged" data-name="geo map - 32px - merged"><path class="cls-2" d="M16,168a8,8,0,1,0,8,8A8,8,0,0,0,16,168Zm0,15a7,7,0,0,1-4.69-1.82.79.79,0,0,1,.1-.27,3.76,3.76,0,0,0,.36-1.83c0-.35-.34-.56-.63-.75a4.14,4.14,0,0,1-1.42-1.76c-.27-.55-.41-1.14-.63-1.7a7,7,0,0,1,1.27-3,1.32,1.32,0,0,1,.22-.05.9.9,0,0,0,.59-.3,1,1,0,0,1,.68-.32.47.47,0,0,0,.34-.8.9.9,0,0,1-.12-.19l.42-.26c.3.15.51-.07.72-.28s.73-.22.72-.13c0,.28-.23.4-.4.55a.78.78,0,0,1-.14.09c-.11.07-.32.09-.27.26s.29.15.43.09a2.76,2.76,0,0,0,1.3-.75.83.83,0,0,1,.68-.32,5.17,5.17,0,0,0,1.58-.35,6.93,6.93,0,0,1,1.35.37,2.2,2.2,0,0,0-1.35.67.22.22,0,0,0,0,.34c.13.11.46-.16.7-.1s.41.13.28.45-.3.52-.65.47c-.52-.07-1.32.9-1.21,1.07s.59.1.69.06a1.1,1.1,0,0,1,1.24.19c.23.21.51.14.7-.15a.74.74,0,0,1,.82-.34c.14,0,.28.1.27.27s-.16.18-.28.2l-.41,0c-.1,0-.19.07-.19.19a.19.19,0,0,0,.19.18c.55,0,.64.34.75.8a3.64,3.64,0,0,0,.85,1.37,3.09,3.09,0,0,1,.23.3c.22.36.36.4.67.11a3.47,3.47,0,0,0,.4-.48c.33-.45-.69-.9-.67-1.13s.78-.25,1.06-.27A7,7,0,0,1,16,183Z"/><path class="cls-2" d="M20.58,176c-.74.07-1-.5-1.33-.93a8,8,0,0,0-.88-1.21,1.08,1.08,0,0,0-1.23-.24c-.46.27-.73.09-1.05-.17s-.58-.52-.82-.47a3.3,3.3,0,0,0-2.05.84,4,4,0,0,0-1,2.21.57.57,0,0,0,.22.58,2.08,2.08,0,0,0,2,.68,1.1,1.1,0,0,1,1.36.84,2,2,0,0,0,.21.4,1.23,1.23,0,0,1,.23.91,2.41,2.41,0,0,0,.38,1.75c.24.54.58.64,1.1.38.91-.46,1.3-1.39,1.87-2.15a.59.59,0,0,0,.07-.49,1.29,1.29,0,0,1,.22-1c.3-.46.6-.92.89-1.39C20.84,176.36,20.9,176,20.58,176Z"/></g><rect class="cls-1" y="160" width="32" height="32" transform="translate(-160 192) rotate(-90)"/><rect class="cls-1" y="128" width="32" height="32" transform="translate(-128 160) rotate(-90)"/><rect class="cls-3" x="8" y="136" width="16" height="16"/><rect class="cls-2" x="14.5" y="129.5" width="3" height="16" transform="translate(-121.5 153.5) rotate(-90)"/><line class="cls-3" x1="13.33" y1="139" x2="13.33" y2="152"/><line class="cls-3" x1="18.67" y1="139" x2="18.67" y2="152"/><line class="cls-3" x1="8" y1="148.17" x2="24" y2="148.17"/><line class="cls-3" x1="8" y1="142.83" x2="24" y2="142.83"/><rect class="cls-1" y="64" width="32" height="32" transform="translate(-64 96) rotate(-90)"/><polyline class="cls-3" points="24 88 8 88 8 72"/><polyline class="cls-3" points="8 82.88 12.47 78 17.22 82 24 75"/><rect class="cls-1" y="32" width="32" height="32" transform="translate(-32 64) rotate(-90)"/><rect class="cls-2" x="10.5" y="48.5" width="3" height="8" transform="translate(-40.5 64.5) rotate(-90)"/><rect class="cls-2" x="11.5" y="42.5" width="3" height="10" transform="translate(-34.5 60.5) rotate(-90)"/><rect class="cls-2" x="9.5" y="39.5" width="3" height="6" transform="translate(-31.5 53.5) rotate(-90)"/><polyline class="cls-4" points="8 40 8 56 24 56"/><rect class="cls-1" x="32" width="32" height="32" transform="translate(32 64) rotate(-90)"/><rect class="cls-5" x="42" y="16" width="3" height="8"/><rect class="cls-5" x="47" y="14" width="3" height="10"/><rect class="cls-5" x="52" y="18" width="3" height="6"/><polyline class="cls-6" points="56 24 40 24 40 8"/><rect class="cls-1" x="32" y="96" width="32" height="32" transform="translate(-64 160) rotate(-90)"/><circle class="cls-7" cx="48" cy="112" r="8"/><line class="cls-7" x1="48" y1="112" x2="42.26" y2="117.57"/><line class="cls-7" x1="56" y1="112" x2="48" y2="112"/><line class="cls-7" x1="48" y1="104" x2="48" y2="112"/><g id="geo_map_-_32px_-_merged-2" data-name="geo map - 32px - merged"><path class="cls-5" d="M48,168a8,8,0,1,0,8,8A8,8,0,0,0,48,168Zm0,15a7,7,0,0,1-4.69-1.82.79.79,0,0,1,.1-.27,3.76,3.76,0,0,0,.36-1.83c0-.35-.34-.56-.63-.75a4.14,4.14,0,0,1-1.42-1.76c-.27-.55-.41-1.14-.63-1.7a7,7,0,0,1,1.27-3,1.32,1.32,0,0,1,.22-.05.9.9,0,0,0,.59-.3,1,1,0,0,1,.68-.32.47.47,0,0,0,.34-.8.9.9,0,0,1-.12-.19l.42-.26c.3.15.51-.07.72-.28s.73-.22.72-.13c0,.28-.23.4-.4.55a.78.78,0,0,1-.14.09c-.11.07-.32.09-.27.26s.29.15.43.09a2.76,2.76,0,0,0,1.3-.75.83.83,0,0,1,.68-.32,5.17,5.17,0,0,0,1.58-.35,6.93,6.93,0,0,1,1.35.37,2.2,2.2,0,0,0-1.35.67.22.22,0,0,0,0,.34c.13.11.46-.16.7-.1s.41.13.28.45-.3.52-.65.47c-.52-.07-1.32.9-1.21,1.07s.59.1.69.06a1.1,1.1,0,0,1,1.24.19c.23.21.51.14.7-.15a.74.74,0,0,1,.82-.34c.14,0,.28.1.27.27s-.16.18-.28.2l-.41,0c-.1,0-.19.07-.19.19a.19.19,0,0,0,.19.18c.55,0,.64.34.75.8a3.64,3.64,0,0,0,.85,1.37,3.09,3.09,0,0,1,.23.3c.22.36.36.4.67.11a3.47,3.47,0,0,0,.4-.48c.33-.45-.69-.9-.67-1.13s.78-.25,1.06-.27A7,7,0,0,1,48,183Z"/><path class="cls-5" d="M52.58,176c-.74.07-1-.5-1.33-.93a8,8,0,0,0-.88-1.21,1.08,1.08,0,0,0-1.23-.24c-.46.27-.73.09-1.05-.17s-.58-.52-.82-.47a3.3,3.3,0,0,0-2.05.84,4,4,0,0,0-1,2.21.57.57,0,0,0,.22.58,2.08,2.08,0,0,0,2,.68,1.1,1.1,0,0,1,1.36.84,2,2,0,0,0,.21.4,1.23,1.23,0,0,1,.23.91,2.41,2.41,0,0,0,.38,1.75c.24.54.58.64,1.1.38.91-.46,1.3-1.39,1.87-2.15a.59.59,0,0,0,.07-.49,1.29,1.29,0,0,1,.22-1c.3-.46.6-.92.89-1.39C52.84,176.36,52.9,176,52.58,176Z"/></g><rect class="cls-1" x="32" y="160" width="32" height="32" transform="translate(-128 224) rotate(-90)"/><rect class="cls-1" x="32" y="128" width="32" height="32" transform="translate(-96 192) rotate(-90)"/><rect class="cls-7" x="40" y="136" width="16" height="16"/><rect class="cls-5" x="46.5" y="129.5" width="3" height="16" transform="translate(-89.5 185.5) rotate(-90)"/><line class="cls-7" x1="45.33" y1="139" x2="45.33" y2="152"/><line class="cls-7" x1="50.67" y1="139" x2="50.67" y2="152"/><line class="cls-7" x1="40" y1="148.17" x2="56" y2="148.17"/><line class="cls-7" x1="40" y1="142.83" x2="56" y2="142.83"/><rect class="cls-1" x="32" y="64" width="32" height="32" transform="translate(-32 128) rotate(-90)"/><polyline class="cls-7" points="56 88 40 88 40 72"/><polyline class="cls-7" points="40 82.88 44.47 78 49.22 82 56 75"/><rect class="cls-1" x="32" y="32" width="32" height="32" transform="translate(0 96) rotate(-90)"/><rect class="cls-5" x="42.5" y="48.5" width="3" height="8" transform="translate(-8.5 96.5) rotate(-90)"/><rect class="cls-5" x="43.5" y="42.5" width="3" height="10" transform="translate(-2.5 92.5) rotate(-90)"/><rect class="cls-5" x="41.5" y="39.5" width="3" height="6" transform="translate(0.5 85.5) rotate(-90)"/><polyline class="cls-7" points="40 40 40 56 56 56"/></svg>